<svg width="40" height="41" viewBox="0 0 40 41" fill="none" xmlns="http://www.w3.org/2000/svg">
<g clip-path="url(#clip0_469_1513)">
<path d="M12 32.1549C5.4 32.1549 0 26.7549 0 20.1549C0 13.5549 5.4 8.15491 12 8.15491C18.6 8.15491 24 13.5549 24 20.1549C24 26.7549 18.6 32.1549 12 32.1549ZM12 9.65491C6.2 9.65491 1.5 14.3549 1.5 20.1549C1.5 25.9549 6.2 30.6549 12 30.6549C17.8 30.6549 22.5 25.9549 22.5 20.1549C22.5 14.3549 17.8 9.65491 12 9.65491Z" fill="#262626"/>
<path d="M17.45 20.1549C17.45 19.4549 16.9 18.9049 16.2 18.9049C15.5 18.9049 14.95 19.4549 14.95 20.1549C14.95 20.8549 15.5 21.4049 16.2 21.4049C16.9 21.4049 17.45 20.8549 17.45 20.1549ZM6.55 20.1549C6.55 19.4549 7.1 18.9049 7.8 18.9049C8.5 18.9049 9.04999 19.4549 9.04999 20.1549C9.04999 20.8549 8.5 21.4049 7.8 21.4049C7.1 21.4049 6.55 20.8549 6.55 20.1549ZM12 26.8049C9.39999 26.8049 8 25.0549 7.9 24.9549C7.65 24.6549 7.7 24.1549 7.99999 23.9049C8.29999 23.6549 8.79999 23.7049 9.04999 24.0049C9.09999 24.0549 10.1 25.2549 11.95 25.2549C13.8 25.2549 14.85 24.0049 14.85 24.0049C15.1 23.7049 15.6 23.6549 15.9 23.9049C16.2 24.1549 16.25 24.6549 16 24.9549C16 25.0549 14.6 26.8049 12 26.8049Z" fill="#262626"/>
</g>
<defs>
<clipPath id="clip0_469_1513">
<rect width="24" height="24" fill="white" transform="translate(0 8.15491)"/>
</clipPath>
</defs>
</svg>
