<svg width="16" height="18" viewBox="0 0 16 18" fill="none" xmlns="http://www.w3.org/2000/svg">
<path d="M4.16665 11.5C4.90622 11.4999 5.62448 11.2523 6.20706 10.7967L8.03873 12.6283L8.6279 12.0392L6.79623 10.2075C7.25206 9.62487 7.4998 8.90644 7.49998 8.16668C7.49998 6.32876 6.00456 4.83334 4.16665 4.83334C2.32873 4.83334 0.833313 6.32876 0.833313 8.16668C0.833313 10.0046 2.32873 11.5 4.16665 11.5ZM4.16665 5.66668C5.5454 5.66668 6.66665 6.78793 6.66665 8.16668C6.66665 9.54543 5.5454 10.6667 4.16665 10.6667C2.7879 10.6667 1.66665 9.54543 1.66665 8.16668C1.66665 6.78793 2.7879 5.66668 4.16665 5.66668Z" fill="#8E8E8E"/>
</svg>
