<svg width="48" height="43" viewBox="0 0 48 43" fill="none" xmlns="http://www.w3.org/2000/svg">
<path d="M20 22.6549C20.8284 22.6549 21.5 21.9834 21.5 21.1549C21.5 20.3265 20.8284 19.6549 20 19.6549C19.1716 19.6549 18.5 20.3265 18.5 21.1549C18.5 21.9834 19.1716 22.6549 20 22.6549Z" fill="#262626"/>
<path d="M14.5 22.6549C15.3284 22.6549 16 21.9834 16 21.1549C16 20.3265 15.3284 19.6549 14.5 19.6549C13.6716 19.6549 13 20.3265 13 21.1549C13 21.9834 13.6716 22.6549 14.5 22.6549Z" fill="#262626"/>
<path d="M25.5 22.6549C26.3284 22.6549 27 21.9834 27 21.1549C27 20.3265 26.3284 19.6549 25.5 19.6549C24.6716 19.6549 24 20.3265 24 21.1549C24 21.9834 24.6716 22.6549 25.5 22.6549Z" fill="#262626"/>
</svg>
