<svg width="40" height="41" viewBox="0 0 40 41" fill="none" xmlns="http://www.w3.org/2000/svg">
<path d="M25.3 11.2049C28.15 11.2049 30.5 13.8049 30.5 16.9549C30.5 20.3549 27.55 22.4549 24.75 24.9549C21.95 27.4549 20.5 28.8049 20 29.1049C19.45 28.7549 17.65 27.1049 15.25 24.9549C12.4 22.4549 9.5 20.3549 9.5 16.9549C9.5 13.8049 11.85 11.2049 14.7 11.2049C16.8 11.2049 17.95 12.2049 18.75 13.3549C19.7 14.6549 19.85 15.3049 20 15.3049C20.15 15.3049 20.3 14.6549 21.25 13.3549C22.05 12.2049 23.2 11.2049 25.3 11.2049ZM25.3 9.70493C23.05 9.70493 21.35 10.6049 20 12.5049C18.65 10.6549 16.95 9.75493 14.7 9.75493C11 9.70493 8 12.9549 8 16.9549C8 20.6049 10.7 22.9549 13.3 25.2049C13.6 25.4549 13.95 25.7549 14.25 26.0549L15.4 27.0549C17.6 29.0049 18.7 30.0049 19.2 30.3049C19.45 30.4549 19.75 30.5549 20 30.5549C20.3 30.5549 20.55 30.4549 20.8 30.3049C21.3 30.0049 22.2 29.2049 24.7 26.9049L25.7 26.0049C26.05 25.7049 26.35 25.4049 26.7 25.1549C29.35 22.9549 32 20.6549 32 16.9549C32 12.9549 29 9.70493 25.3 9.70493Z" fill="#262626"/>
</svg>
